<svg width="32" height="32" viewBox="0 0 32 32" fill="none" xmlns="http://www.w3.org/2000/svg">
<path d="M20.5303 5.86366C20.8232 5.57077 20.8232 5.0959 20.5303 4.803C20.2374 4.51011 19.7626 4.51011 19.4697 4.803L20.5303 5.86366ZM9.33333 16L8.803 15.4697C8.5101 15.7626 8.5101 16.2374 8.803 16.5303L9.33333 16ZM19.4697 27.197C19.7626 27.4899 20.2374 27.4899 20.5303 27.197C20.8232 26.9041 20.8232 26.4292 20.5303 26.1363L19.4697 27.197ZM19.4697 4.803L8.803 15.4697L9.86366 16.5303L20.5303 5.86366L19.4697 4.803ZM8.803 16.5303L19.4697 27.197L20.5303 26.1363L9.86366 15.4697L8.803 16.5303Z" fill="#ABB8C5"/>
</svg>
