<svg width="26" height="26" viewBox="0 0 26 26" fill="none" xmlns="http://www.w3.org/2000/svg">
<g clip-path="url(#clip0_3_211)">
<path d="M25.0714 2.78571H0.928571C0.414955 2.78571 0 3.20066 0 3.71428V22.2857C0 22.7993 0.414955 23.2143 0.928571 23.2143H25.0714C25.585 23.2143 26 22.7993 26 22.2857V3.71428C26 3.20066 25.585 2.78571 25.0714 2.78571ZM23.9107 6.00088V21.125H2.08929V6.00088L1.28839 5.377L2.42879 3.9116L3.67076 4.87789H22.3321L23.5741 3.9116L24.7145 5.377L23.9107 6.00088ZM22.3321 4.87499L13 12.1295L3.66786 4.87499L2.42589 3.9087L1.28549 5.3741L2.08638 5.99798L11.9989 13.7051C12.284 13.9266 12.6347 14.0468 12.9956 14.0468C13.3566 14.0468 13.7073 13.9266 13.9924 13.7051L23.9107 6.00088L24.7116 5.377L23.5712 3.9116L22.3321 4.87499Z" fill="#ABB8C5"/>
</g>
<defs>
<clipPath id="clip0_3_211">
<rect width="26" height="26" fill="white"/>
</clipPath>
</defs>
</svg>
