<svg width="32" height="32" viewBox="0 0 32 32" fill="none" xmlns="http://www.w3.org/2000/svg">
<path d="M29.3333 16L29.9989 16.3457C30.1115 16.129 30.1115 15.871 29.9989 15.6543L29.3333 16ZM14.6667 6.74429L14.7539 7.48921L14.7539 7.48921L14.6667 6.74429ZM26.1012 19.2853C25.8291 19.5977 25.8617 20.0714 26.174 20.3435C26.4864 20.6156 26.9601 20.5829 27.2322 20.2706L26.1012 19.2853ZM13.1595 6.25111C12.7566 6.34713 12.5078 6.7516 12.6038 7.15453C12.6998 7.55746 13.1042 7.80627 13.5072 7.71026L13.1595 6.25111ZM16 11.25C15.5858 11.25 15.25 11.5858 15.25 12C15.25 12.4142 15.5858 12.75 16 12.75V11.25ZM17.3333 12.2276L17.0834 12.9347L17.0834 12.9347L17.3333 12.2276ZM19.7724 14.6667L19.0653 14.9166L19.0653 14.9166L19.7724 14.6667ZM19.25 16C19.25 16.4142 19.5858 16.75 20 16.75C20.4142 16.75 20.75 16.4142 20.75 16H19.25ZM4.53034 3.46967C4.23744 3.17678 3.76257 3.17678 3.46967 3.46967C3.17678 3.76256 3.17678 4.23744 3.46967 4.53033L4.53034 3.46967ZM27.4697 28.5303C27.7626 28.8232 28.2374 28.8232 28.5303 28.5303C28.8232 28.2374 28.8232 27.7626 28.5303 27.4697L27.4697 28.5303ZM16 20.75C16.4142 20.75 16.75 20.4142 16.75 20C16.75 19.5858 16.4142 19.25 16 19.25V20.75ZM14.6667 19.7724L14.9166 19.0653L14.9166 19.0653L14.6667 19.7724ZM12.2276 17.3333L11.5205 17.5833L11.5205 17.5833L12.2276 17.3333ZM12.795 16.5426C12.7264 16.1341 12.3397 15.8585 11.9312 15.927C11.5227 15.9955 11.2471 16.3823 11.3156 16.7908L12.795 16.5426ZM2.66667 16L2.00112 15.6543C1.88852 15.871 1.88852 16.129 2.00112 16.3457L2.66667 16ZM4.42485 13.3333L5.01986 13.7899L5.01986 13.7899L4.42485 13.3333ZM6.08828 12.5001C6.36448 12.1914 6.33814 11.7173 6.02946 11.4411C5.72077 11.1649 5.24663 11.1912 4.97043 11.4999L6.08828 12.5001ZM17.4205 26.0006C17.8319 25.9525 18.1264 25.5799 18.0783 25.1685C18.0301 24.7571 17.6575 24.4626 17.2461 24.5108L17.4205 26.0006ZM16 7.41667C19.9539 7.41667 23.1054 9.59195 25.3112 11.8566C26.4083 12.983 27.2516 14.1119 27.8204 14.9596C28.1043 15.3827 28.3187 15.734 28.4609 15.9774C28.532 16.099 28.585 16.1936 28.6196 16.2565C28.6369 16.288 28.6496 16.3115 28.6576 16.3266C28.6617 16.3341 28.6645 16.3395 28.6662 16.3427C28.6671 16.3444 28.6676 16.3454 28.6679 16.3459C28.668 16.3462 28.6681 16.3463 28.668 16.3462C28.668 16.3462 28.668 16.3461 28.668 16.3461C28.6679 16.3459 28.6678 16.3457 29.3333 16C29.9989 15.6543 29.9988 15.654 29.9986 15.6537C29.9985 15.6535 29.9983 15.6532 29.9982 15.6529C29.9979 15.6523 29.9975 15.6516 29.997 15.6507C29.9961 15.6489 29.9949 15.6466 29.9934 15.6437C29.9903 15.638 29.9861 15.63 29.9807 15.6199C29.9699 15.5996 29.9543 15.5707 29.934 15.5339C29.8935 15.4601 29.834 15.3541 29.756 15.2205C29.5999 14.9535 29.3692 14.5756 29.066 14.1238C28.4605 13.2215 27.5614 12.017 26.3858 10.81C24.0462 8.40805 20.531 5.91667 16 5.91667V7.41667ZM14.7539 7.48921C15.1592 7.44175 15.5746 7.41667 16 7.41667V5.91667C15.5155 5.91667 15.0419 5.94525 14.5795 5.99938L14.7539 7.48921ZM29.3333 16C28.6678 15.6543 28.6678 15.6542 28.6679 15.6541C28.6679 15.6541 28.6679 15.654 28.668 15.6539C28.668 15.6539 28.668 15.6538 28.668 15.6538C28.6681 15.6537 28.668 15.6538 28.668 15.6539C28.6678 15.6542 28.6674 15.655 28.6668 15.6561C28.6656 15.6585 28.6635 15.6624 28.6605 15.6681C28.6545 15.6793 28.645 15.6971 28.6319 15.7209C28.6059 15.7687 28.5658 15.841 28.5118 15.9348C28.4039 16.1225 28.2408 16.3959 28.0242 16.731C27.5905 17.4022 26.9449 18.3167 26.1012 19.2853L27.2322 20.2706C28.1327 19.2369 28.8205 18.2625 29.284 17.5452C29.516 17.1862 29.6926 16.8905 29.8121 16.6826C29.8719 16.5787 29.9175 16.4966 29.9487 16.4395C29.9642 16.4109 29.9762 16.3885 29.9846 16.3728C29.9888 16.3649 29.9921 16.3587 29.9945 16.3542C29.9957 16.3519 29.9966 16.3501 29.9974 16.3487C29.9977 16.348 29.998 16.3474 29.9983 16.3469C29.9984 16.3466 29.9985 16.3464 29.9986 16.3462C29.9987 16.3461 29.9988 16.346 29.9988 16.346C29.9988 16.3459 29.9989 16.3457 29.3333 16ZM13.5072 7.71026C13.912 7.6138 14.3276 7.53911 14.7539 7.48921L14.5795 5.99938C14.0932 6.05631 13.6197 6.14144 13.1595 6.25111L13.5072 7.71026ZM16 12.75C16.3812 12.75 16.7455 12.8153 17.0834 12.9347L17.5833 11.5205C17.0871 11.3451 16.5538 11.25 16 11.25V12.75ZM17.0834 12.9347C18.0063 13.2609 18.7391 13.9937 19.0653 14.9166L20.4795 14.4167C20.0023 13.0665 18.9335 11.9977 17.5833 11.5205L17.0834 12.9347ZM19.0653 14.9166C19.1847 15.2545 19.25 15.6188 19.25 16H20.75C20.75 15.4462 20.6549 14.9129 20.4795 14.4167L19.0653 14.9166ZM3.46967 4.53033L27.4697 28.5303L28.5303 27.4697L4.53034 3.46967L3.46967 4.53033ZM16 19.25C15.6188 19.25 15.2545 19.1847 14.9166 19.0653L14.4167 20.4795C14.9129 20.6549 15.4462 20.75 16 20.75V19.25ZM14.9166 19.0653C13.9937 18.7391 13.2609 18.0063 12.9347 17.0834L11.5205 17.5833C11.9977 18.9335 13.0665 20.0023 14.4167 20.4795L14.9166 19.0653ZM12.9347 17.0834C12.8733 16.9095 12.8262 16.7288 12.795 16.5426L11.3156 16.7908C11.3614 17.0634 11.4304 17.3283 11.5205 17.5833L12.9347 17.0834ZM16 24.5833C12.0461 24.5833 8.89464 22.408 6.68878 20.1434C5.59169 19.017 4.7484 17.8881 4.17961 17.0404C3.89567 16.6173 3.68135 16.266 3.53911 16.0226C3.46801 15.901 3.41502 15.8064 3.38042 15.7435C3.36312 15.712 3.35043 15.6885 3.34238 15.6734C3.33836 15.6659 3.3355 15.6605 3.3338 15.6573C3.33296 15.6556 3.3324 15.6546 3.33214 15.6541C3.33201 15.6538 3.33195 15.6537 3.33196 15.6538C3.33197 15.6538 3.33204 15.6539 3.33204 15.6539C3.33212 15.6541 3.33223 15.6543 2.66667 16C2.00112 16.3457 2.00126 16.346 2.00142 16.3463C2.00149 16.3465 2.00167 16.3468 2.00183 16.3471C2.00214 16.3477 2.00252 16.3484 2.00298 16.3493C2.0039 16.3511 2.00512 16.3534 2.00663 16.3563C2.00966 16.362 2.01389 16.37 2.0193 16.3801C2.03012 16.4004 2.04569 16.4293 2.06597 16.4661C2.10654 16.5399 2.16599 16.6459 2.24405 16.7795C2.4001 17.0465 2.63085 17.4244 2.93403 17.8762C3.53949 18.7785 4.43862 19.983 5.61426 21.19C7.95385 23.592 11.4691 26.0833 16 26.0833V24.5833ZM2.66667 16C3.33223 16.3457 3.33219 16.3458 3.33215 16.3459C3.33214 16.3459 3.3321 16.346 3.33208 16.346C3.33204 16.3461 3.33201 16.3461 3.33199 16.3462C3.33195 16.3463 3.33195 16.3463 3.33198 16.3462C3.33205 16.3461 3.33226 16.3457 3.33261 16.345C3.33332 16.3437 3.33461 16.3412 3.33649 16.3377C3.34023 16.3306 3.3463 16.3192 3.35467 16.3037C3.37142 16.2727 3.39739 16.2253 3.43247 16.1631C3.50264 16.0385 3.60917 15.8548 3.7512 15.6245C4.03546 15.1637 4.4607 14.5186 5.01986 13.7899L3.82985 12.8767C3.23464 13.6524 2.78079 14.3406 2.47456 14.837C2.32133 15.0854 2.20476 15.2863 2.12564 15.4267C2.08608 15.4969 2.05585 15.5521 2.03507 15.5905C2.02468 15.6098 2.01664 15.6248 2.01098 15.6355C2.00815 15.6408 2.00591 15.6451 2.00427 15.6482C2.00345 15.6498 2.00277 15.6511 2.00225 15.6521C2.00198 15.6526 2.00176 15.653 2.00157 15.6534C2.00148 15.6536 2.00139 15.6537 2.00132 15.6539C2.00128 15.6539 2.00123 15.654 2.00121 15.6541C2.00116 15.6542 2.00112 15.6543 2.66667 16ZM5.01986 13.7899C5.33455 13.3798 5.69113 12.944 6.08828 12.5001L4.97043 11.4999C4.54559 11.9747 4.16504 12.4399 3.82985 12.8767L5.01986 13.7899ZM17.2461 24.5108C16.8408 24.5582 16.4254 24.5833 16 24.5833V26.0833C16.4845 26.0833 16.9582 26.0548 17.4205 26.0006L17.2461 24.5108Z" fill="#ABB8C5"/>
</svg>
