<svg width="32" height="32" viewBox="0 0 32 32" fill="none" xmlns="http://www.w3.org/2000/svg">
    <path d="M31.3643 15.0786C27.9786 7.94643 22.8607 4.35715 16 4.35715C9.13571 4.35715 4.02142 7.94643 0.635707 15.0821C0.499905 15.3697 0.429474 15.6838 0.429474 16.0018C0.429474 16.3198 0.499905 16.6339 0.635707 16.9214C4.02142 24.0536 9.13928 27.6429 16 27.6429C22.8643 27.6429 27.9786 24.0536 31.3643 16.9179C31.6393 16.3393 31.6393 15.6679 31.3643 15.0786ZM16 25.0714C10.2393 25.0714 6.02142 22.15 3.04642 16C6.02142 9.85 10.2393 6.92858 16 6.92858C21.7607 6.92858 25.9786 9.85 28.9536 16C25.9821 22.15 21.7643 25.0714 16 25.0714ZM15.8571 9.71429C12.3857 9.71429 9.57142 12.5286 9.57142 16C9.57142 19.4714 12.3857 22.2857 15.8571 22.2857C19.3286 22.2857 22.1429 19.4714 22.1429 16C22.1429 12.5286 19.3286 9.71429 15.8571 9.71429ZM15.8571 20C13.6464 20 11.8571 18.2107 11.8571 16C11.8571 13.7893 13.6464 12 15.8571 12C18.0679 12 19.8571 13.7893 19.8571 16C19.8571 18.2107 18.0679 20 15.8571 20Z" fill="#ABB8C5"/>
</svg>