<?xml version="1.0" encoding="utf-8"?>
<!-- Generator: Adobe Illustrator 24.3.0, SVG Export Plug-In . SVG Version: 6.00 Build 0)  -->
<svg version="1.1" id="Layer_1" xmlns="http://www.w3.org/2000/svg" xmlns:xlink="http://www.w3.org/1999/xlink" x="0px" y="0px"
	 viewBox="0 0 430 440.6" style="enable-background:new 0 0 430 440.6;" xml:space="preserve">
<style type="text/css">
	.st0{fill:#F9BE89;}
	.st1{fill:#EAB2D2;}
	.st2{fill:#020203;}
</style>
<g id="Layer_1_1_">
	
		<rect x="132.2" y="40.6" transform="matrix(0.9087 -0.4174 0.4174 0.9087 -37.0735 98.677)" class="st0" width="149.7" height="187.1"/>
	<g>
		
			<rect x="179.2" y="217.4" transform="matrix(0.9087 -0.4174 0.4174 0.9087 -75.4662 127.6154)" class="st1" width="149.7" height="37.9"/>
		
			<rect x="150.6" y="70.4" transform="matrix(0.9087 -0.4174 0.4174 0.9087 -19.409 85.3633)" class="st1" width="69.7" height="33.3"/>
	</g>
	<path class="st2" d="M189.7,286.8c1.1,2.3,3.8,3.4,6.2,2.3l136-62.5c2.3-1.1,3.4-3.8,2.3-6.2L240.3,15.9c-1.1-2.3-3.8-3.4-6.2-2.3
		l-136,62.5c-2.3,1.1-3.4,3.8-2.3,6.2L189.7,286.8z M106.2,82.6L233.8,24L308,185.6l-127.5,58.6L106.2,82.6L106.2,82.6z
		 M323.8,220.1l-127.5,58.6l-1.2-2.7l92.2-42.3c2.3-1.1,3.4-3.8,2.3-6.2c-1.1-2.3-3.8-3.4-6.2-2.3l-92.2,42.3l-1.2-2.7l71.2-32.7
		c2.3-1.1,3.4-3.8,2.3-6.2c-1.1-2.3-3.8-3.4-6.2-2.3L186,256.3l-1.7-3.6l127.5-58.6L323.8,220.1L323.8,220.1z"/>
	<path class="st2" d="M208.2,53.1l-63.4,29.1c-2.3,1.1-3.4,3.8-2.3,6.2l13.9,30.3c1.1,2.3,3.8,3.4,6.2,2.3l63.4-29.1
		c2.3-1.1,3.4-3.8,2.3-6.2l-13.9-30.3C213.4,53.1,210.6,52,208.2,53.1z M217.9,85.4L163,110.6l-10-21.8l54.9-25.2L217.9,85.4z"/>
	<path class="st2" d="M304,225.9l4.7-2.1c2.3-1.1,3.4-3.8,2.3-6.2c-1.1-2.3-3.8-3.4-6.2-2.3l-4.7,2.1c-2.3,1.1-3.4,3.8-2.3,6.2
		C298.8,226,301.6,227,304,225.9z"/>
</g>
<g id="Layer_2_1_">
	<g>
		<path d="M78.3,412.5H55.5V377c0-3.1-0.7-5.4-2.1-6.8c-1.4-1.4-3.1-2.1-5.2-2.1c-0.7,0-1.6,0.2-2.6,0.7s-2,1-3,1.8
			s-1.9,1.7-2.8,2.8s-1.6,2.4-2.2,3.7v35.4H14.8v-87.6h22.8v33.8c2.2-3.4,5.2-6.1,8.8-7.9c3.6-1.8,7.6-2.7,12.1-2.7
			c4.4,0,7.9,0.8,10.6,2.3s4.6,3.4,6,5.7s2.2,4.7,2.6,7.4s0.6,5.1,0.6,7.4L78.3,412.5L78.3,412.5z"/>
		<path d="M89.4,344.2V325h22.8v19.2H89.4z M89.4,412.5v-63.1h22.8v63.1H89.4z"/>
		<path class="st0" d="M150.1,413.8c-4.3,0-8.3-0.8-11.9-2.4c-3.6-1.6-6.8-3.9-9.4-6.8c-2.6-2.9-4.7-6.4-6.2-10.4s-2.2-8.5-2.2-13.3
			c0-4.6,0.7-9,2-13s3.3-7.5,5.7-10.4s5.3-5.2,8.7-6.8s7.1-2.5,11.2-2.5s7.8,0.9,11.2,2.8s6,4.4,7.9,7.8v-33.8h22.8v62.4
			c0,2.2,0.3,3.7,1,4.5c0.6,0.8,1.8,1.3,3.4,1.5v19.2c-3.9,0.8-7.1,1.2-9.6,1.2c-7.8,0-12.2-2.9-13.4-8.8l-0.5-2.3
			c-2.2,3.8-5.1,6.6-8.8,8.4C158.2,412.9,154.2,413.8,150.1,413.8z M156.3,394.5c4.2,0,7.8-2.2,10.8-6.5v-11.3
			c-1.1-2.8-2.8-5.1-4.9-6.8c-2.2-1.7-4.4-2.6-6.8-2.6c-1.7,0-3.2,0.4-4.6,1.1c-1.4,0.7-2.6,1.7-3.6,3s-1.8,2.8-2.4,4.4
			c-0.6,1.7-0.9,3.5-0.9,5.4c0,4,1.1,7.2,3.4,9.6C149.5,393.3,152.6,394.5,156.3,394.5z"/>
		<path class="st0" d="M203.5,344.2V325h22.8v19.2H203.5z M203.5,412.5v-63.1h22.8v63.1H203.5z"/>
		<path class="st0" d="M256.4,413.8c-3.1,0-6-0.5-8.8-1.6s-5.1-2.5-7-4.3s-3.5-3.9-4.6-6.4s-1.7-5.2-1.7-8c0-3.2,0.7-6.1,2-8.8
			c1.4-2.6,3.2-4.9,5.6-6.8s5.3-3.4,8.6-4.4c3.3-1,7-1.6,11-1.6c5.1,0,9.4,0.8,12.7,2.4v-1.9c0-3-0.9-5.2-2.6-6.6s-4.5-2.2-8.3-2.2
			c-3.6,0-6.9,0.6-10,1.7c-3,1.2-6.2,2.9-9.6,5.1l-6.6-14.2c8.3-5.4,17.8-8,28.4-8c10.1,0,17.8,2.2,23.3,6.7s8.2,11.2,8.2,20.2v12.2
			c0,2.2,0.3,3.7,1,4.5c0.6,0.8,1.8,1.3,3.4,1.5v19.2c-1.8,0.4-3.6,0.7-5.2,0.9s-3.1,0.3-4.4,0.3c-4.1,0-7.2-0.7-9.3-2.2
			s-3.5-3.7-4.1-6.5l-0.5-2.3c-2.8,3.6-6,6.3-9.7,8.2S260.6,413.8,256.4,413.8z M263.2,397.4c1.4,0,2.8-0.2,4.2-0.7s2.7-1,3.8-1.7
			c0.9-0.6,1.6-1.3,2.2-2.1c0.6-0.8,0.8-1.5,0.8-2.3v-4.7c-1.4-0.5-2.8-0.9-4.4-1.2s-3-0.5-4.3-0.5c-2.8,0-5.1,0.7-7,2
			s-2.8,3.1-2.8,5.2c0,1.8,0.7,3.2,2.1,4.3S261.1,397.4,263.2,397.4z"/>
		<path class="st0" d="M352.5,368.9c-4.4,0-8.4,0.5-12,1.4s-6.3,2.6-8,4.8v37.4h-22.8v-63.1h20.9v12c2.2-4.2,5-7.5,8.3-9.8
			s6.9-3.4,10.7-3.4c1.5,0,2.5,0,2.9,0.1V368.9z"/>
		<path class="st0" d="M359.1,418.9c3.7,1.4,6.8,2,9.4,2c4.9,0,7.6-2.8,8-8.4l-22.9-63.1H377l12,43.8l9.7-43.8H420l-21.4,70.7
			c-1,3.1-2.3,5.9-4.1,8.5c-1.8,2.5-3.9,4.7-6.3,6.5s-5.1,3.2-8.1,4.1s-6,1.4-9.2,1.4c-4.1,0-8-0.8-11.8-2.3V418.9z"/>
	</g>
</g>
</svg>
