<svg width="32" height="32" viewBox="0 0 32 32" fill="none" xmlns="http://www.w3.org/2000/svg">
<path d="M27.9993 21.9689L27.2495 21.9502C27.2493 21.9565 27.2493 21.9627 27.2493 21.9689L27.9993 21.9689ZM27.9993 25.5819L27.2492 25.5819L27.2493 25.585L27.9993 25.5819ZM6.41087 4.00012L6.41087 3.25012L6.41017 3.25012L6.41087 4.00012ZM10.0311 4.00012L10.0311 4.75015L10.0384 4.75008L10.0311 4.00012ZM11.6285 4.58246L11.14 5.15157L11.14 5.15157L11.6285 4.58246ZM11.2137 13.5265L10.6838 12.9956C10.4445 13.2345 10.3946 13.6039 10.562 13.8977L11.2137 13.5265ZM18.454 20.7525L18.0839 21.4048C18.377 21.5712 18.7452 21.5215 18.9838 21.2834L18.454 20.7525ZM27.4279 20.3521L27.9997 19.8667L27.9997 19.8667L27.4279 20.3521ZM13.3905 10.8057L14.1239 10.9624L14.1239 10.9624L13.3905 10.8057ZM21.1802 18.58L21.3363 19.3136L21.3363 19.3136L21.1802 18.58ZM25.3686 27.9906L25.436 27.2436C25.4134 27.2416 25.3907 27.2406 25.368 27.2406L25.3686 27.9906ZM4.00948 6.62558L4.75948 6.62617C4.7595 6.6034 4.75848 6.58063 4.75643 6.55795L4.00948 6.62558ZM27.2493 21.9689V25.5819H28.7493V21.9689H27.2493ZM6.41087 4.75012H10.0311V3.25012H6.41087V4.75012ZM10.0384 4.75008C10.4425 4.74611 10.834 4.88893 11.14 5.15157L12.117 4.01334C11.5349 3.51374 10.7909 3.24262 10.0237 3.25015L10.0384 4.75008ZM10.562 13.8977C12.3467 17.0303 14.9455 19.6238 18.0839 21.4048L18.8242 20.1002C15.9204 18.4523 13.5163 16.0529 11.8653 13.1552L10.562 13.8977ZM26.8562 20.8374C27.1197 21.1479 27.2596 21.544 27.2495 21.9502L28.749 21.9875C28.7683 21.2125 28.5015 20.4577 27.9997 19.8667L26.8562 20.8374ZM11.14 5.15157C11.3415 5.32451 11.5745 5.65075 11.8037 6.13003C12.0272 6.59716 12.2224 7.15698 12.3742 7.74086C12.6871 8.94451 12.7762 10.0916 12.657 10.649L14.1239 10.9624C14.3172 10.0578 14.1565 8.63504 13.8259 7.36345C13.656 6.7097 13.4309 6.05556 13.1569 5.48269C12.8886 4.92197 12.5467 4.38217 12.117 4.01334L11.14 5.15157ZM21.3363 19.3136C21.8968 19.1943 23.0514 19.2838 24.2609 19.5981C24.8478 19.7506 25.41 19.9467 25.8785 20.1713C26.3593 20.4018 26.6849 20.6357 26.8562 20.8374L27.9997 19.8667C27.6313 19.4328 27.0895 19.0884 26.527 18.8187C25.952 18.543 25.2949 18.317 24.6381 18.1463C23.3603 17.8143 21.9307 17.6534 21.024 17.8464L21.3363 19.3136ZM18.9838 21.2834C19.1944 21.0732 19.4062 20.8383 19.6019 20.6248C19.804 20.4044 19.9971 20.1979 20.1957 20.0108C20.5992 19.6308 20.9633 19.3929 21.3363 19.3136L21.024 17.8464C20.2533 18.0105 19.6455 18.4685 19.1674 18.9188C18.9253 19.1468 18.7001 19.3889 18.4964 19.611C18.2864 19.84 18.1048 20.0415 17.9242 20.2216L18.9838 21.2834ZM12.657 10.649C12.5777 11.0202 12.3398 11.3833 11.959 11.7861C11.7715 11.9844 11.5645 12.177 11.3437 12.3787C11.1298 12.5741 10.8945 12.7854 10.6838 12.9956L11.7435 14.0573C11.924 13.8771 12.1258 13.6958 12.3553 13.4862C12.5779 13.283 12.8205 13.0583 13.0489 12.8166C13.5 12.3396 13.9593 11.7326 14.1239 10.9624L12.657 10.649ZM25.368 27.2406C13.7496 27.2497 4.75039 18.168 4.75948 6.62617L3.25948 6.62499C3.24974 18.9919 12.9172 28.7503 25.3692 28.7406L25.368 27.2406ZM27.2493 25.585C27.2531 26.5259 26.3884 27.3295 25.436 27.2436L25.3012 28.7376C27.1376 28.9032 28.7567 27.4002 28.7492 25.5789L27.2493 25.585ZM4.75643 6.55795C4.67102 5.6147 5.4679 4.751 6.41158 4.75012L6.41017 3.25012C4.59509 3.25182 3.09677 4.86249 3.26254 6.69321L4.75643 6.55795Z" fill="#ABB8C5"/>
</svg>
