<svg width="32" height="32" viewBox="0 0 32 32" fill="none" xmlns="http://www.w3.org/2000/svg">
<path d="M28 8H28.75C28.75 7.58579 28.4142 7.25 28 7.25V8ZM28 24V24.75C28.4142 24.75 28.75 24.4142 28.75 24H28ZM10.6667 24L10.1364 24.5303C10.277 24.671 10.4678 24.75 10.6667 24.75V24ZM2.66669 16L2.13636 15.4697C1.84346 15.7626 1.84346 16.2374 2.13636 16.5303L2.66669 16ZM10.6667 8V7.25C10.4678 7.25 10.277 7.32902 10.1364 7.46967L10.6667 8ZM27.25 8V24H28.75V8H27.25ZM28 23.25H10.6667V24.75H28V23.25ZM11.197 23.4697L3.19702 15.4697L2.13636 16.5303L10.1364 24.5303L11.197 23.4697ZM3.19702 16.5303L11.197 8.53033L10.1364 7.46967L2.13636 15.4697L3.19702 16.5303ZM10.6667 8.75H28V7.25H10.6667V8.75ZM15.25 16C15.25 17.0585 14.3919 17.9167 13.3334 17.9167V19.4167C15.2203 19.4167 16.75 17.887 16.75 16H15.25ZM13.3334 17.9167C12.2748 17.9167 11.4167 17.0585 11.4167 16H9.91669C9.91669 17.887 11.4464 19.4167 13.3334 19.4167V17.9167ZM11.4167 16C11.4167 14.9415 12.2748 14.0833 13.3334 14.0833V12.5833C11.4464 12.5833 9.91669 14.113 9.91669 16H11.4167ZM13.3334 14.0833C14.3919 14.0833 15.25 14.9415 15.25 16H16.75C16.75 14.113 15.2203 12.5833 13.3334 12.5833V14.0833Z" fill="#ABB8C5"/>
</svg>
