<svg width="831" height="662" viewBox="0 0 831 662" fill="none" xmlns="http://www.w3.org/2000/svg">
<path d="M830.569 0C830.98 54.3278 820.485 108.656 799.906 158.868C779.328 209.286 748.665 255.382 710.183 294.07C671.907 332.758 625.605 363.626 575.393 384.616C525.181 405.607 470.647 416.307 416.113 416.513C361.58 416.513 307.046 405.607 256.834 384.616C206.622 363.626 160.32 332.758 122.043 294.07C83.7671 255.382 52.899 209.286 32.3203 158.868C11.7416 108.45 1.45218 54.122 1.65796 0C2.06954 54.3278 12.9764 108.244 34.1724 158.25C54.9569 208.257 85.8249 253.736 124.307 291.806C162.583 329.877 208.268 360.539 258.275 381.118C308.075 401.697 362.197 412.397 416.113 412.192C470.03 412.192 524.152 401.697 573.952 381.118C623.958 360.539 669.643 329.877 707.92 291.806C746.196 253.736 777.064 208.051 798.054 158.25C819.25 108.45 830.157 54.3278 830.569 0Z" fill="#FDBC96"/>
<path d="M806.697 0C807.109 51.0352 797.231 102.482 777.887 149.813C758.543 197.35 729.527 240.771 693.309 277.195C657.09 313.62 613.669 342.841 566.132 362.597C518.801 382.353 467.354 392.436 415.908 392.642C364.461 392.642 313.22 382.353 265.683 362.597C218.352 342.841 174.725 313.825 138.506 277.195C102.288 240.771 73.4777 197.144 53.9279 149.813C34.5839 102.276 24.9119 51.0352 25.1177 0C25.5293 51.0352 35.8187 102.07 55.78 148.99C75.5356 196.115 104.551 239.125 140.77 274.932C176.989 310.739 219.998 339.549 267.123 359.099C314.043 378.648 365.078 388.526 415.908 388.526C466.737 388.526 517.566 378.648 564.692 359.099C611.817 339.755 654.826 310.739 691.045 274.932C727.263 239.125 756.28 195.909 776.035 148.99C795.996 102.07 806.492 51.241 806.697 0Z" fill="#FDBC96"/>
<path d="M783.032 0C783.444 47.9484 774.183 96.1026 756.074 140.758C737.759 185.414 710.595 226.16 676.64 260.527C642.685 294.893 601.734 322.263 557.283 340.784C512.628 359.304 464.473 368.976 416.113 368.976C367.753 368.976 319.599 359.304 274.944 340.784C230.288 322.263 189.542 294.893 155.587 260.527C121.632 226.366 94.4682 185.414 76.1531 140.758C58.0439 96.1026 48.7833 47.9484 49.1948 0C49.6064 47.9484 59.2784 95.8968 78.005 139.935C96.5259 184.18 123.896 224.514 157.851 258.263C191.805 291.806 232.345 318.97 276.384 337.285C320.628 355.6 368.371 364.861 416.113 364.861C463.856 364.861 511.599 355.6 555.843 337.285C600.087 319.176 640.421 292.012 674.376 258.263C708.331 224.514 735.701 184.18 754.222 139.935C772.949 95.8968 782.621 48.1542 783.032 0Z" fill="#FDBC96"/>
<path d="M759.367 0C759.778 44.8616 751.135 89.929 734.26 131.704C717.18 173.479 691.868 211.755 659.971 243.652C628.28 275.755 590.003 301.272 548.229 318.764C506.454 336.256 461.387 345.105 416.113 345.105C370.84 345.105 325.773 336.05 283.998 318.764C242.223 301.478 203.947 275.755 172.256 243.652C140.564 211.549 115.047 173.273 97.9665 131.704C80.8862 89.929 72.4487 44.8616 72.8603 0C73.2719 44.8616 82.3267 89.7232 99.8186 130.881C117.105 172.244 142.622 209.903 174.519 241.388C206.21 272.874 244.075 298.186 285.439 315.266C326.802 332.346 371.458 340.989 416.113 340.989C460.769 340.989 505.425 332.346 546.788 315.266C588.151 298.186 625.811 272.874 657.708 241.388C689.399 209.903 714.916 172.038 732.408 130.881C749.9 89.7232 758.955 44.8616 759.367 0Z" fill="#FDBC96"/>
<path d="M735.701 0C736.113 41.7748 728.087 83.7554 712.447 122.649C696.601 161.543 672.936 197.144 643.303 226.983C613.669 256.822 578.068 280.694 539.38 296.951C500.486 313.208 458.506 321.44 416.319 321.645C374.339 321.645 332.152 313.208 293.259 296.951C254.365 280.694 218.764 257.028 189.336 226.983C159.703 197.144 136.037 161.543 120.191 122.649C104.346 83.7554 96.5261 41.7748 96.9376 0C97.3492 41.7748 105.786 83.5496 122.249 121.826C138.301 160.308 162.172 195.498 191.805 224.72C221.439 253.941 256.628 277.607 295.111 293.453C333.593 309.298 375.162 317.53 416.731 317.324C458.3 317.324 499.869 309.298 538.351 293.453C576.833 277.607 612.023 253.941 641.656 224.72C671.29 195.498 694.955 160.308 711.212 121.826C726.646 83.5496 735.289 41.7748 735.701 0Z" fill="#FDBC96"/>
<path d="M711.829 0C712.241 38.688 704.833 77.5817 690.222 113.595C675.611 149.607 653.592 182.533 626.222 210.314C598.852 238.096 565.927 260.115 529.914 275.137C493.901 290.16 455.007 297.774 416.113 297.98C377.22 297.98 338.12 290.16 302.313 275.137C266.3 260.115 233.374 238.096 206.005 210.314C178.635 182.739 156.822 149.607 142.005 113.595C127.394 77.5817 120.192 38.688 120.397 0C120.809 38.688 128.629 77.376 143.857 112.771C158.879 148.373 180.899 180.887 208.268 208.051C235.638 235.009 268.152 257.028 303.754 271.639C339.355 286.25 377.837 293.864 416.113 293.864C454.596 293.864 493.078 286.456 528.473 271.639C564.074 257.028 596.589 235.215 623.958 208.051C651.328 180.887 673.347 148.373 688.37 112.771C703.598 77.376 711.624 38.688 711.829 0Z" fill="#FDBC96"/>
<path d="M688.164 0C688.576 35.6012 681.785 71.4082 668.408 104.54C655.032 137.672 634.865 168.128 609.553 193.44C584.447 218.958 553.991 239.33 520.859 253.118C487.727 266.906 451.92 274.109 416.113 274.109C380.306 274.109 344.294 266.906 311.368 253.118C278.236 239.33 247.985 218.958 222.674 193.44C197.567 167.922 177.4 137.672 163.818 104.54C150.442 71.4082 143.651 35.6012 144.063 0C144.474 35.6012 151.677 70.9966 165.671 103.717C179.458 136.437 199.625 166.276 224.937 191.176C250.043 216.077 280.088 236.038 312.808 249.62C345.529 263.202 380.924 269.993 416.113 269.993C451.509 269.993 486.904 263.202 519.418 249.62C552.139 236.244 581.978 216.077 607.29 191.176C632.396 166.276 652.769 136.437 666.556 103.717C680.55 70.9966 687.752 35.6012 688.164 0Z" fill="#FDBC96"/>
<path d="M664.498 0C664.91 32.5144 658.736 65.2345 646.595 95.4852C634.248 125.736 615.933 153.517 592.885 176.771C569.836 200.025 542.261 218.546 512.01 231.305C481.759 243.858 449.039 250.443 416.319 250.443C383.599 250.443 350.879 243.858 320.628 231.305C290.377 218.752 262.596 200.231 239.754 176.771C216.706 153.517 198.39 125.736 186.043 95.4852C173.902 65.2345 167.728 32.5144 168.14 0C168.551 32.5144 175.137 64.823 187.895 94.6621C200.448 124.501 218.969 151.665 242.017 174.508C265.066 197.144 292.23 215.459 322.069 227.806C351.908 240.154 384.216 246.327 416.319 246.327C448.628 246.327 480.731 240.154 510.57 227.806C540.409 215.459 567.779 197.144 590.621 174.508C613.669 151.871 631.984 124.501 644.743 94.6621C657.502 64.823 664.087 32.5144 664.498 0Z" fill="#FDBC96"/>
<path d="M640.833 0C641.244 29.4276 635.688 58.8551 624.782 86.2248C613.669 113.595 597 138.701 576.216 159.897C555.431 181.093 530.325 197.761 502.955 209.286C475.586 220.81 445.952 226.572 416.319 226.777C386.686 226.777 357.052 220.81 329.683 209.286C302.313 197.967 277.207 181.093 256.422 159.897C235.638 138.906 218.969 113.595 207.857 86.2248C196.744 58.8551 191.188 29.2218 191.805 0C192.217 29.4276 198.185 58.6493 209.709 85.6075C221.027 112.566 237.902 137.26 258.686 157.633C279.471 178.006 304.165 194.675 331.123 205.787C358.081 216.9 387.303 222.662 416.319 222.456C445.541 222.456 474.557 216.9 501.515 205.787C528.473 194.675 553.167 178.212 573.952 157.633C594.736 137.054 611.405 112.566 622.929 85.6075C634.248 58.6493 640.215 29.4276 640.833 0Z" fill="#FDBC96"/>
<path d="M616.962 0C617.373 26.3408 612.434 52.6815 602.556 77.1702C592.679 101.659 577.862 124.09 559.135 143.022C540.615 161.954 517.978 176.977 493.489 187.266C469.001 197.556 442.454 202.7 415.908 202.906C389.361 202.906 362.814 197.556 338.326 187.266C313.837 176.977 291.406 161.954 272.68 143.022C254.159 124.09 239.136 101.659 229.258 77.1702C219.381 52.6815 214.442 26.135 214.853 0C215.471 52.6815 237.49 104.334 274.738 140.964C293.258 159.279 315.278 174.096 339.561 183.974C363.638 193.851 389.773 198.996 415.702 198.996C441.631 198.996 467.766 194.057 491.843 183.974C515.92 174.096 537.939 159.279 556.666 140.964C594.531 104.334 616.344 52.6815 616.962 0Z" fill="#FDBC96"/>
<path d="M593.296 0C593.708 23.254 589.386 46.5079 580.743 68.1155C572.1 89.7232 558.93 109.685 542.467 126.353C526.004 143.022 506.248 156.398 484.641 165.453C463.033 174.508 439.573 179.241 416.113 179.241C392.654 179.241 369.194 174.508 347.586 165.453C325.978 156.398 306.017 143.228 289.76 126.353C273.297 109.685 260.332 89.7232 251.484 68.1155C242.841 46.5079 238.519 23.0482 238.931 0C239.548 46.5079 259.098 91.9869 292.024 124.09C308.487 140.141 327.831 153.106 349.027 161.954C370.223 170.803 393.271 175.125 416.113 175.125C438.956 175.125 462.004 170.803 483.2 161.954C504.396 153.311 523.74 140.141 540.203 124.09C573.335 91.9869 592.679 46.5079 593.296 0Z" fill="#FDBC96"/>
<path d="M569.631 0C570.042 20.1671 566.338 40.3343 558.93 59.0609C551.316 77.7875 539.997 95.0737 525.798 109.479C511.599 124.09 494.313 135.408 475.586 143.434C456.859 151.254 436.486 155.369 416.113 155.369C395.74 155.369 375.368 151.254 356.641 143.434C337.914 135.614 320.628 124.09 306.429 109.479C292.229 95.0737 280.911 77.7875 273.297 59.0609C265.889 40.3343 262.185 19.9614 262.596 0C263.214 40.1285 280.088 79.6396 308.693 107.421C322.892 121.209 339.766 132.527 358.082 140.141C376.397 147.755 396.152 151.459 416.113 151.459C435.869 151.459 455.83 147.755 474.145 140.141C492.46 132.733 509.335 121.414 523.534 107.421C552.139 79.6396 569.013 40.3343 569.631 0Z" fill="#FDBC96"/>
<path d="M545.965 0C546.377 17.0803 543.29 34.1607 537.116 50.0063C530.737 65.8519 521.271 80.4628 509.129 92.81C497.193 105.157 482.583 114.829 466.737 121.62C450.891 128.205 433.605 131.704 416.319 131.704C399.033 131.704 381.953 128.205 365.901 121.62C350.056 115.035 335.445 105.157 323.509 92.81C311.573 80.4628 301.902 65.8519 295.522 50.0063C289.349 34.1607 286.056 16.8745 286.673 0C287.291 33.9549 301.696 67.0866 325.773 90.5464C337.708 102.276 351.908 111.742 367.342 118.122C382.776 124.501 399.445 127.794 416.319 127.588C432.988 127.588 449.657 124.501 465.297 118.122C480.731 111.742 494.93 102.276 506.865 90.5464C530.943 67.0866 545.142 33.9549 545.965 0Z" fill="#FDBC96"/>
<path d="M522.094 0C522.505 13.7877 520.036 27.7813 514.891 40.9516C509.746 53.9162 501.927 66.0577 492.049 76.1413C472.499 96.5142 444.306 108.038 415.908 108.038C387.715 108.038 359.522 96.3084 339.766 76.1413C329.889 66.0577 322.069 54.122 316.924 40.9516C311.779 27.987 309.31 13.9935 309.721 0C310.545 27.7813 322.274 54.7394 341.824 73.8776C351.702 83.3438 363.226 91.1637 375.779 96.3084C388.332 101.453 401.914 104.128 415.702 104.128C429.284 104.128 442.866 101.453 455.624 96.3084C468.177 91.1637 479.701 83.3438 489.579 73.8776C509.746 54.7394 521.476 27.7813 522.094 0Z" fill="#FDBC96"/>
<path d="M498.428 0C498.84 10.7009 496.988 21.6077 493.078 31.897C489.168 41.9806 483.2 51.4468 475.38 59.2667C467.766 67.0866 458.505 73.466 448.216 77.7876C438.133 82.1091 427.02 84.167 415.908 84.3727C404.795 84.3727 393.888 82.1091 383.599 77.7876C373.515 73.466 364.255 67.2924 356.435 59.2667C348.821 51.4468 342.853 41.9806 338.737 31.897C334.827 21.8134 332.975 10.9067 333.387 0C334.21 21.6077 343.47 42.3922 358.699 57.003C373.927 71.8197 394.712 80.257 415.702 80.257C436.692 80.257 457.682 71.8197 472.705 57.003C488.345 42.3922 497.811 21.6077 498.428 0Z" fill="#FDBC96"/>
<path d="M474.763 0C475.174 7.61412 473.94 15.434 471.264 22.8424C468.589 30.0449 464.267 36.8359 458.711 42.5979C453.361 48.36 446.57 52.8873 439.367 55.9741C432.165 59.0609 424.139 60.7072 416.319 60.7072C408.293 60.7072 400.474 59.0609 393.271 55.9741C386.068 52.8873 379.277 48.36 373.927 42.5979C368.371 36.8359 364.255 30.2507 361.374 22.8424C358.699 15.434 357.464 7.81991 357.875 0C358.699 15.434 365.49 29.8391 376.191 40.3343C386.891 50.6236 401.708 56.5915 416.525 56.5915C431.341 56.5915 445.953 50.6236 456.859 40.3343C467.149 30.0449 473.94 15.434 474.763 0Z" fill="#FDBC96"/>
<path d="M451.097 0C451.92 9.05464 448.628 18.7266 442.042 25.7234C438.75 29.2218 434.84 31.897 430.313 33.9549C425.991 35.807 421.052 36.8359 416.319 36.8359C411.586 36.8359 406.647 35.807 402.326 33.9549C398.004 32.1028 393.888 29.2218 390.596 25.7234C384.01 18.7266 380.718 9.05464 381.541 0C382.364 9.05464 386.48 17.4919 392.859 23.4597C399.239 29.4276 407.676 32.7201 416.319 32.7201C424.962 32.7201 433.399 29.4276 439.779 23.4597C446.158 17.4919 450.274 9.05464 451.097 0Z" fill="#FDBC96"/>
<path d="M0.0116541 661.4C-0.39992 607.072 10.095 552.744 30.6737 502.532C51.2525 452.114 81.915 406.018 120.397 367.33C158.674 328.642 204.976 297.774 255.188 276.784C305.4 255.793 359.933 245.093 414.467 244.887C469 244.887 523.534 255.793 573.746 276.784C623.958 297.774 670.26 328.642 708.537 367.33C746.813 406.018 777.681 452.114 798.26 502.532C818.839 552.95 829.128 607.278 828.922 661.4C828.511 607.072 817.604 553.156 796.408 503.15C775.624 453.143 744.755 407.664 706.273 369.594C667.997 331.523 622.312 300.861 572.306 280.282C522.505 259.703 468.383 249.002 414.467 249.208C360.551 249.208 306.429 259.703 256.628 280.282C206.622 300.861 160.937 331.523 122.661 369.594C84.3844 407.664 53.5162 453.349 32.5259 503.15C11.3298 553.156 0.423228 607.072 0.0116541 661.4Z" fill="#454545"/>
<path d="M23.6771 661.4C23.2656 610.365 33.1433 558.918 52.4873 511.587C71.8313 464.05 100.847 420.629 137.066 384.205C173.284 347.78 216.705 318.559 264.242 298.803C311.573 279.047 363.02 268.964 414.467 268.758C465.914 268.758 517.155 279.047 564.691 298.803C612.022 318.559 655.649 347.575 691.868 384.205C728.086 420.629 756.897 464.256 776.446 511.587C795.79 559.124 805.462 610.365 805.257 661.4C804.845 610.365 794.556 559.329 774.594 512.41C754.839 465.285 725.823 422.275 689.604 386.468C653.386 350.661 610.376 321.851 563.251 302.301C516.331 282.752 465.296 272.874 414.467 272.874C363.637 272.874 312.808 282.752 265.683 302.301C218.558 321.645 175.548 350.661 139.329 386.468C103.111 422.275 74.0948 465.491 54.3392 512.41C34.3779 559.329 24.0887 610.159 23.6771 661.4Z" fill="#454545"/>
<path d="M47.5484 661.4C47.1369 613.452 56.3972 565.297 74.5065 520.642C92.8216 475.986 119.985 435.24 153.94 400.873C187.895 366.507 228.847 339.137 273.297 320.616C317.953 302.096 366.107 292.424 414.467 292.424C462.827 292.424 510.981 302.096 555.637 320.616C600.293 339.137 641.039 366.507 674.994 400.873C708.948 435.034 736.112 475.986 754.427 520.642C772.537 565.297 781.797 613.452 781.385 661.4C780.974 613.452 771.302 565.503 752.575 521.465C734.054 477.22 706.685 436.886 672.73 403.137C638.775 369.594 598.235 342.43 554.196 324.115C509.952 305.8 462.209 296.539 414.467 296.539C366.724 296.539 318.982 305.8 274.738 324.115C230.493 342.224 190.159 369.388 156.204 403.137C122.249 436.886 94.8795 477.22 76.3586 521.465C57.632 565.503 47.7542 613.452 47.5484 661.4Z" fill="#454545"/>
<path d="M71.2138 661.4C70.8023 616.538 79.4452 571.471 96.3198 529.696C113.4 487.921 138.712 449.645 170.609 417.748C202.3 385.645 240.577 360.128 282.351 342.636C324.126 325.144 369.194 316.295 414.467 316.295C459.74 316.295 504.807 325.349 546.582 342.636C588.357 359.922 626.633 385.645 658.325 417.748C690.016 449.851 715.534 488.127 732.614 529.696C749.694 571.471 758.131 616.538 757.72 661.4C757.308 616.538 748.254 571.677 730.762 530.519C713.476 489.156 687.958 451.497 656.061 420.012C624.37 388.526 586.505 363.214 545.142 346.134C503.778 329.054 459.123 320.411 414.467 320.411C369.811 320.411 325.155 329.054 283.792 346.134C242.429 363.214 204.77 388.526 172.873 420.012C141.182 451.497 115.664 489.362 98.1719 530.519C80.68 571.677 71.4196 616.538 71.2138 661.4Z" fill="#454545"/>
<path d="M94.8794 661.4C94.4678 619.625 102.493 577.645 118.133 538.751C133.979 499.857 157.645 464.256 187.278 434.417C216.911 404.578 252.512 380.706 291.2 364.449C330.094 348.192 372.075 339.96 414.261 339.755C456.242 339.755 498.428 348.192 537.322 364.449C576.216 380.706 611.817 404.372 641.244 434.417C670.878 464.256 694.543 499.857 710.389 538.751C726.234 577.645 734.054 619.625 733.643 661.4C733.231 619.625 724.794 577.85 708.331 539.574C692.279 501.092 668.408 465.902 638.775 436.68C609.141 407.459 573.952 383.793 535.47 367.947C496.987 352.102 455.418 343.87 413.849 344.076C372.28 344.076 330.712 352.102 292.229 367.947C253.747 383.793 218.557 407.459 188.924 436.68C159.291 465.902 135.625 501.092 119.368 539.574C103.728 577.85 95.291 619.625 94.8794 661.4Z" fill="#454545"/>
<path d="M118.545 661.4C118.133 622.712 125.542 583.818 140.153 547.805C154.763 511.793 176.783 478.867 204.152 451.085C231.522 423.304 264.448 401.285 300.461 386.263C336.474 371.24 375.367 363.626 414.261 363.42C453.155 363.42 492.254 371.24 528.061 386.263C564.074 401.285 597 423.304 624.37 451.085C651.739 478.661 673.553 511.793 688.37 547.805C702.98 583.818 710.183 622.712 709.977 661.4C709.566 622.712 701.746 584.024 686.517 548.629C671.495 513.027 649.476 480.513 622.106 453.349C594.736 426.391 562.222 404.372 526.621 389.761C491.02 375.15 452.537 367.536 414.261 367.536C375.779 367.536 337.297 374.944 301.901 389.761C266.3 404.372 233.786 426.185 206.416 453.349C179.046 480.513 157.027 513.027 142.005 548.629C126.982 584.024 118.956 622.712 118.545 661.4Z" fill="#454545"/>
<path d="M142.211 661.4C141.799 625.799 148.59 589.992 161.966 556.86C175.342 523.728 195.509 493.272 220.821 467.96C245.927 442.442 276.384 422.07 309.515 408.282C342.647 394.494 378.454 387.291 414.261 387.291C450.068 387.291 486.081 394.494 519.007 408.282C552.139 422.07 582.389 442.442 607.701 467.96C632.807 493.478 652.974 523.728 666.556 556.86C679.932 589.992 686.723 625.799 686.312 661.4C685.9 625.799 678.698 590.403 664.704 557.683C650.916 524.963 630.749 495.124 605.437 470.224C580.331 445.323 550.287 425.362 517.566 411.78C484.846 398.198 449.451 391.407 414.261 391.407C378.866 391.407 343.47 398.198 310.956 411.78C278.236 425.156 248.397 445.323 223.085 470.224C197.979 495.124 177.606 524.963 163.818 557.683C150.03 590.403 142.828 625.799 142.211 661.4Z" fill="#454545"/>
<path d="M166.082 661.4C165.67 628.886 171.844 596.165 183.985 565.915C196.332 535.664 214.648 507.883 237.696 484.629C260.744 461.375 288.319 442.854 318.57 430.095C348.821 417.542 381.541 410.957 414.261 410.957C446.981 410.957 479.701 417.542 509.952 430.095C540.203 442.648 567.984 461.169 590.826 484.629C613.875 507.883 632.19 535.664 644.537 565.915C656.678 596.165 662.852 628.886 662.44 661.4C662.029 628.886 655.444 596.577 642.685 566.738C630.132 536.899 611.611 509.735 588.563 486.892C565.515 464.256 538.351 445.941 508.512 433.594C478.672 421.246 446.364 415.073 414.261 415.073C381.952 415.073 349.85 421.246 320.011 433.594C290.171 445.941 262.802 464.256 239.959 486.892C216.911 509.529 198.596 536.899 185.837 566.738C173.078 596.577 166.493 628.886 166.082 661.4Z" fill="#454545"/>
<path d="M189.747 661.4C189.336 631.972 194.892 602.545 205.799 575.175C216.911 547.805 233.58 522.699 254.364 501.503C275.149 480.307 300.255 463.638 327.625 452.114C354.994 440.59 384.628 434.828 414.261 434.622C443.894 434.622 473.528 440.59 500.897 452.114C528.267 463.433 553.373 480.307 574.158 501.503C594.942 522.494 611.611 547.805 622.723 575.175C633.836 602.545 639.392 632.178 638.775 661.4C638.363 631.972 632.395 602.751 620.871 575.793C609.553 548.834 592.678 524.14 571.894 503.767C551.109 483.394 526.415 466.725 499.457 455.613C472.499 444.5 443.277 438.738 414.261 438.944C385.039 438.944 356.023 444.5 329.065 455.613C302.107 466.725 277.413 483.188 256.628 503.767C235.844 524.346 219.175 548.834 207.651 575.793C196.126 602.751 190.159 631.972 189.747 661.4Z" fill="#454545"/>
<path d="M213.413 661.4C213.001 635.059 217.94 608.718 227.818 584.23C237.696 559.741 252.512 537.31 271.239 518.378C289.76 499.445 312.396 484.423 336.885 474.134C361.374 463.844 387.92 458.7 414.467 458.494C441.013 458.494 467.56 463.844 492.049 474.134C516.537 484.423 538.968 499.445 557.695 518.378C576.216 537.31 591.238 559.741 601.116 584.23C610.994 608.718 615.932 635.265 615.521 661.4C614.904 608.718 592.884 557.066 555.637 520.436C537.116 502.121 515.097 487.304 490.814 477.426C466.737 467.548 440.602 462.404 414.673 462.404C388.743 462.404 362.608 467.343 338.531 477.426C314.454 487.304 292.435 502.121 273.708 520.436C236.049 557.066 214.03 608.718 213.413 661.4Z" fill="#454545"/>
<path d="M237.078 661.4C236.667 638.146 240.988 614.892 249.631 593.284C258.274 571.677 271.445 551.715 287.908 535.047C304.371 518.378 324.126 505.002 345.734 495.947C367.342 486.892 390.801 482.159 414.261 482.159C437.721 482.159 461.181 486.892 482.788 495.947C504.396 505.002 524.357 518.172 540.614 535.047C557.077 551.715 570.042 571.677 578.891 593.284C587.534 614.892 591.855 638.352 591.444 661.4C590.826 614.892 571.277 569.413 538.351 537.31C521.888 521.259 502.544 508.294 481.348 499.445C460.151 490.597 437.103 486.275 414.261 486.275C391.419 486.275 368.37 490.597 347.174 499.445C325.978 508.089 306.634 521.259 290.171 537.31C257.246 569.413 237.901 614.892 237.078 661.4Z" fill="#454545"/>
<path d="M260.95 661.4C260.538 641.233 264.242 621.066 271.651 602.339C279.265 583.612 290.583 566.326 304.782 551.921C318.982 537.31 336.268 525.992 354.994 517.966C373.721 510.146 394.094 506.031 414.467 506.031C434.84 506.031 455.213 510.146 473.939 517.966C492.666 525.786 509.952 537.31 524.151 551.921C538.351 566.326 549.669 583.612 557.283 602.339C564.691 621.066 568.396 641.439 567.984 661.4C567.367 621.272 550.492 581.76 521.888 553.979C507.688 540.191 490.814 528.873 472.499 521.259C454.184 513.645 434.428 509.941 414.467 509.941C394.711 509.941 374.75 513.645 356.435 521.259C338.12 528.667 321.245 539.986 307.046 553.979C278.442 581.76 261.567 621.272 260.95 661.4Z" fill="#454545"/>
<path d="M284.615 661.4C284.203 644.32 287.29 627.239 293.464 611.394C299.843 595.548 309.31 580.937 321.451 568.59C333.387 556.243 347.997 546.571 363.843 539.78C379.689 533.195 396.975 529.696 414.261 529.696C431.547 529.696 448.627 533.195 464.679 539.78C480.524 546.365 495.135 556.243 507.071 568.59C519.007 580.937 528.679 595.548 535.058 611.394C541.232 627.239 544.524 644.525 543.907 661.4C543.289 627.445 528.884 594.313 504.807 570.854C492.872 559.124 478.672 549.658 463.238 543.278C447.804 536.899 431.135 533.606 414.261 533.812C397.592 533.812 380.924 536.899 365.284 543.278C349.85 549.658 335.65 559.124 323.715 570.854C299.638 594.313 285.232 627.445 284.615 661.4Z" fill="#454545"/>
<path d="M308.281 661.4C307.869 647.612 310.338 633.619 315.483 620.448C320.628 607.484 328.448 595.342 338.325 585.259C357.875 564.886 386.068 553.362 414.467 553.362C442.66 553.362 470.852 565.092 490.608 585.259C500.486 595.342 508.306 607.278 513.451 620.448C518.595 633.413 521.065 647.406 520.653 661.4C519.83 633.619 508.1 606.661 488.55 587.522C478.672 578.056 467.148 570.236 454.595 565.092C442.042 559.947 428.46 557.272 414.673 557.272C401.091 557.272 387.509 559.947 374.75 565.092C362.197 570.236 350.673 578.056 340.795 587.522C320.834 606.661 309.104 633.619 308.281 661.4Z" fill="#454545"/>
<path d="M331.946 661.4C331.535 650.699 333.387 639.792 337.297 629.503C341.207 619.419 347.175 609.953 354.994 602.133C362.609 594.313 371.869 587.934 382.158 583.612C392.242 579.291 403.354 577.233 414.467 577.027C425.579 577.027 436.486 579.291 446.775 583.612C456.859 587.934 466.119 594.108 473.939 602.133C481.553 609.953 487.521 619.419 491.637 629.503C495.547 639.587 497.399 650.493 496.988 661.4C496.164 639.792 486.904 619.008 471.676 604.397C456.447 589.58 435.663 581.143 414.673 581.143C393.682 581.143 372.692 589.58 357.67 604.397C342.03 619.008 332.769 639.792 331.946 661.4Z" fill="#454545"/>
<path d="M355.817 661.4C355.406 653.786 356.641 645.966 359.316 638.558C361.991 631.355 366.313 624.564 371.869 618.802C377.219 613.04 384.01 608.513 391.213 605.426C398.415 602.339 406.441 600.693 414.261 600.693C422.287 600.693 430.107 602.339 437.309 605.426C444.512 608.513 451.303 613.04 456.653 618.802C462.209 624.564 466.325 631.149 469.206 638.558C471.881 645.966 473.116 653.58 472.705 661.4C471.881 645.966 465.09 631.561 454.389 621.066C443.688 610.776 428.872 604.808 414.055 604.808C399.239 604.808 384.628 610.776 373.721 621.066C363.226 631.561 356.435 645.966 355.817 661.4Z" fill="#454545"/>
<path d="M379.483 661.4C378.66 652.345 381.952 642.673 388.538 635.677C391.83 632.178 395.74 629.503 400.268 627.445C404.589 625.593 409.528 624.564 414.261 624.564C418.994 624.564 423.933 625.593 428.255 627.445C432.576 629.297 436.692 632.178 439.984 635.677C446.57 642.673 449.862 652.345 449.039 661.4C448.216 652.345 444.1 643.908 437.721 637.94C431.341 631.972 422.904 628.68 414.261 628.68C405.618 628.68 397.181 631.972 390.801 637.94C384.422 643.908 380.306 652.345 379.483 661.4Z" fill="#454545"/>
</svg>
